<svg xmlns="http://www.w3.org/2000/svg" viewBox="0 0 32 32" role="img" aria-label="SearchTheWord">
  <defs>
    <linearGradient id="stw-bg" x1="0" y1="0" x2="32" y2="32" gradientUnits="userSpaceOnUse">
      <stop offset="0%" stop-color="#3d4f6f"/>
      <stop offset="100%" stop-color="#283548"/>
    </linearGradient>
  </defs>
  <rect width="32" height="32" rx="8" fill="url(#stw-bg)"/>
  <!-- open book -->
  <path fill="#f5f2ea" d="M7 10.5c0-.83.67-1.5 1.5-1.5h5c.28 0 .5.22.5.5V23H8.5A1.5 1.5 0 0 1 7 21.5v-11zm12-.5c0-.28.22-.5.5-.5h5c.83 0 1.5.67 1.5 1.5v11A1.5 1.5 0 0 1 24.5 23H19.5V10z"/>
  <path stroke="#c9a85a" stroke-width="1.5" stroke-linecap="round" d="M16 9.5v14" opacity="0.95"/>
  <!-- search -->
  <circle cx="21.5" cy="13" r="3.25" fill="none" stroke="#e8d9b8" stroke-width="1.35" opacity="0.92"/>
  <path stroke="#e8d9b8" stroke-width="1.35" stroke-linecap="round" d="M23.9 15.4 26.2 17.7" opacity="0.92"/>
</svg>
